# xmcd
#
# Track frame offsets: 
#        150
#        13114
#        25747
#        38547
#        47276
#        57654
#        70263
#        82539
#        102070
#        112908
#        122203
#        133260
#        144126
#        156497
#        167477
#        179056
#        190074
#        201483
#        214956
#        226399
#
# Disc length: 3189 seconds
#
# Revision: 1
# Processed by: cddbd v1.5.2PL0 Copyright (c) Steve Scherf et al.
# Submitted via: ExactAudioCopy v1.0b6
#
DISCID=110c7314
DTITLE=Various Artist - Stars Of Country [CD2]
DYEAR=2014
DGENRE=Country
TTITLE0=Devil Woman - Marty Robbins
TTITLE1=I Fall To Pieces - Patsy Cline
TTITLE2=Crazy - Willie Nelson
TTITLE3=It's Late - Ricky Nelson
TTITLE4=Rose Marie - Slim Whitman
TTITLE5=A Satisfied Mind - Porter Wagoner
TTITLE6=Don't Let The Stars Get In Your Eyes - Skeets McDonald
TTITLE7=El Paso - Marty Robbins
TTITLE8=Hello Walls - Faron Young
TTITLE9=Honky Tonk Song - Webb Pierce
TTITLE10=Waterloo - Stonewall Jackson
TTITLE11=That's My Pa - Sheb Wooley
TTITLE12=One More Time - Ray Price
TTITLE13=Singing The Blues - Marty Robbins
TTITLE14=Misery Loves Company - Porter Wagoner
TTITLE15=I Don't Care - Webb Pierce
TTITLE16=Crazy Arms - Ray Price
TTITLE17=She's Got You - Patsy Cline
TTITLE18=Story Of My Life - Marty Robbins
TTITLE19=Jimmy Brown (The Three Bells) - The Browns
EXTD=
EXTT0=
EXTT1=
EXTT2=
EXTT3=
EXTT4=
EXTT5=
EXTT6=
EXTT7=
EXTT8=
EXTT9=
EXTT10=
EXTT11=
EXTT12=
EXTT13=
EXTT14=
EXTT15=
EXTT16=
EXTT17=
EXTT18=
EXTT19=
PLAYORDER=
